<svg width="178" height="92" viewBox="0 0 178 92" fill="none" xmlns="http://www.w3.org/2000/svg">
<path fill-rule="evenodd" clip-rule="evenodd" d="M178 6.21882L1.25781 6.2188L1.25781 0L178 1.73865e-05L178 6.21882Z" fill="#D9D9D9"/>
<path d="M27.6748 34.2541H37.2238L46.7078 47.9399V34.2541H48.6566V61.6257H41.0239L29.6561 43.4041L29.6561 61.6257H27.6748L27.6748 34.2541Z" fill="#D9D9D9"/>
<path d="M50.4802 34.2541H74.0929V36.5612H61.913V46.6887H67.8893V49.0348H61.913L61.913 59.2796H74.0929V61.6257L50.4802 61.6257V34.2541Z" fill="#D9D9D9"/>
<path d="M89.8525 59.0841C91.4765 59.0841 92.7649 58.289 93.7176 56.6988C94.6703 55.1087 95.2874 53.1796 95.5689 50.9117H97.5827C97.2795 53.7271 96.5108 56.1253 95.2766 58.1065C94.5837 59.2014 93.7934 60.0225 92.9056 60.57C92.0395 61.0913 91.0759 61.4302 90.0149 61.5866C88.9756 61.743 87.6115 61.8212 85.9225 61.8212C83.5407 61.8212 81.6027 61.5475 80.1087 61.0001C78.6363 60.4266 77.3696 59.5012 76.3086 58.2238C74.2299 55.7213 73.1905 52.2803 73.1905 47.9008C73.1905 43.2868 74.1216 39.8588 75.9838 37.6169C77.1963 36.1571 78.5497 35.1926 80.0437 34.7234C81.5378 34.2541 83.4974 34.0195 85.9225 34.0195C88.1528 34.0195 89.9608 34.215 91.3466 34.6061C92.754 34.971 93.9016 35.7661 94.7894 36.9913C95.5256 38.008 96.0994 39.2332 96.5108 40.6669C96.9222 42.1007 97.1604 43.5214 97.2254 44.9291H95.374C95.2874 43.756 95.0493 42.5569 94.6595 41.3317C94.2914 40.0804 93.7068 39.0116 92.9056 38.1253C92.1044 37.2129 91.0868 36.7567 89.8525 36.7567C88.6833 36.7567 87.7414 37.3693 87.0268 38.5945C86.3989 39.559 85.9225 40.9797 85.5977 42.8566C85.3595 44.2904 85.2404 45.9718 85.2404 47.9008C85.2404 50.9508 85.5436 53.4143 86.1499 55.2912C86.9294 57.8198 88.1636 59.0841 89.8525 59.0841Z" fill="#E2AE48"/>
<path d="M105.167 36.5612H96.625V34.2541H125.11V36.5612H116.535V61.6257H105.167V36.5612Z" fill="#D9D9D9"/>
<path d="M128.257 34.2541H137.741L147.809 61.6257H135.532L132.122 52.554H124.976L122.053 61.6257H119.682L128.257 34.2541ZM131.212 50.1688L128.257 42.231L125.691 50.1688H131.212Z" fill="#D9D9D9"/>
<path fill-rule="evenodd" clip-rule="evenodd" d="M140.891 92.0001L0 92.0001L0 85.7812L140.891 85.7813V92.0001Z" fill="#D9D9D9"/>
<path d="M147.354 91.8187V91.6343L147.497 91.5904C147.598 91.5553 147.663 91.5026 147.693 91.4324C147.723 91.3622 147.741 91.2656 147.746 91.1427C147.751 90.8091 147.754 90.4725 147.754 90.133C147.754 89.7877 147.754 89.4424 147.754 89.0971V88.7371C147.754 88.3976 147.754 88.0581 147.754 87.7187C147.754 87.3792 147.751 87.0397 147.746 86.7003C147.741 86.5773 147.726 86.4837 147.701 86.4193C147.676 86.3491 147.615 86.2964 147.52 86.2613L147.354 86.1998V86.0155H150.984L151.037 87.4992H150.833L150.441 86.63C150.39 86.5188 150.335 86.4339 150.274 86.3754C150.214 86.311 150.126 86.2788 150.01 86.2788H148.848C148.843 86.671 148.838 87.0748 148.833 87.4904C148.833 87.9001 148.833 88.3098 148.833 88.7195H149.557C149.673 88.7195 149.759 88.6903 149.814 88.6317C149.869 88.5674 149.922 88.4796 149.973 88.3684L150.124 88.0435H150.29V89.6502H150.124L149.973 89.3341C149.917 89.217 149.862 89.1292 149.807 89.0707C149.756 89.0063 149.673 88.9741 149.557 88.9741H148.833C148.833 89.3604 148.833 89.7321 148.833 90.0891C148.833 90.4403 148.835 90.7856 148.84 91.1251C148.84 91.3651 148.934 91.5143 149.12 91.5729L149.346 91.6343V91.8187H147.354Z" fill="black"/>
<path d="M153.681 91.9679C153.374 91.9679 153.08 91.9036 152.798 91.7748C152.516 91.646 152.262 91.4558 152.036 91.2041C151.814 90.9466 151.638 90.6276 151.508 90.2472C151.377 89.8667 151.311 89.4219 151.311 88.9127C151.311 88.4152 151.377 87.9762 151.508 87.5958C151.638 87.2153 151.814 86.8963 152.036 86.6388C152.262 86.3813 152.516 86.1881 152.798 86.0594C153.085 85.9247 153.379 85.8574 153.681 85.8574C153.983 85.8574 154.275 85.9218 154.557 86.0506C154.844 86.1793 155.098 86.3725 155.319 86.63C155.541 86.8817 155.717 87.1978 155.847 87.5782C155.978 87.9586 156.044 88.4035 156.044 88.9127C156.044 89.4102 155.978 89.8492 155.847 90.2296C155.717 90.6101 155.541 90.929 155.319 91.1866C155.098 91.4441 154.846 91.6402 154.564 91.7748C154.283 91.9036 153.988 91.9679 153.681 91.9679ZM153.681 91.7046C153.968 91.7046 154.2 91.6197 154.376 91.45C154.552 91.2744 154.68 90.9817 154.761 90.572C154.841 90.1623 154.881 89.6092 154.881 88.9127C154.881 88.2162 154.841 87.666 154.761 87.2621C154.68 86.8524 154.552 86.5627 154.376 86.393C154.2 86.2174 153.968 86.1296 153.681 86.1296C153.399 86.1296 153.168 86.2174 152.987 86.393C152.811 86.5627 152.682 86.8524 152.602 87.2621C152.521 87.666 152.481 88.2162 152.481 88.9127C152.481 89.6092 152.521 90.1623 152.602 90.572C152.682 90.9817 152.811 91.2744 152.987 91.45C153.168 91.6197 153.399 91.7046 153.681 91.7046Z" fill="black"/>
<path d="M156.243 91.8187V91.6343L156.401 91.5816C156.502 91.5465 156.565 91.4968 156.59 91.4324C156.62 91.3622 156.635 91.2656 156.635 91.1427C156.64 90.8032 156.643 90.4637 156.643 90.1243C156.643 89.7848 156.643 89.4424 156.643 89.0971V88.7371C156.643 88.3976 156.643 88.0581 156.643 87.7187C156.643 87.3792 156.64 87.0397 156.635 86.7003C156.635 86.5773 156.623 86.4837 156.597 86.4193C156.572 86.3491 156.509 86.2964 156.409 86.2613L156.243 86.1998V86.0155H158.356C158.945 86.0155 159.398 86.1471 159.715 86.4105C160.037 86.6681 160.198 87.0309 160.198 87.4992C160.198 87.7567 160.11 88.0172 159.934 88.2806C159.762 88.5439 159.498 88.7459 159.141 88.8863L160.168 91.2129C160.253 91.4061 160.386 91.5378 160.568 91.608L160.711 91.6431V91.8187H159.375L158.25 89.0795H157.707C157.707 89.4951 157.707 89.8696 157.707 90.2033C157.707 90.5369 157.709 90.85 157.715 91.1427C157.715 91.2597 157.73 91.3534 157.76 91.4236C157.795 91.4939 157.86 91.5436 157.956 91.5729L158.137 91.6343V91.8187H156.243ZM157.707 88.8249H158.115C158.472 88.8249 158.733 88.7195 158.9 88.5088C159.066 88.2981 159.149 87.9762 159.149 87.5431C159.149 87.11 159.068 86.791 158.907 86.5861C158.751 86.3754 158.497 86.2701 158.145 86.2701H157.715C157.715 86.4983 157.712 86.7324 157.707 86.9724C157.707 87.2065 157.707 87.4728 157.707 87.7714C157.707 88.064 157.707 88.4152 157.707 88.8249Z" fill="black"/>
<path d="M163.514 91.8187V91.6343L163.733 91.5729C163.833 91.5436 163.904 91.4939 163.944 91.4236C163.984 91.3534 164.007 91.2597 164.012 91.1427V89.5536L162.797 86.6651C162.746 86.5481 162.699 86.4603 162.653 86.4018C162.608 86.3432 162.543 86.2964 162.457 86.2613L162.321 86.1998V86.0155H164.321V86.1998L164.185 86.2525C164.075 86.2935 164.014 86.3608 164.004 86.4544C163.994 86.5422 164.017 86.6564 164.072 86.7968L164.933 89.0093L165.861 86.7354C165.906 86.63 165.926 86.5276 165.921 86.4281C165.916 86.3286 165.864 86.2642 165.763 86.2349L165.657 86.1998V86.0155H166.646V86.1998L166.495 86.2525C166.394 86.2876 166.321 86.3403 166.276 86.4105C166.236 86.4808 166.193 86.5744 166.148 86.6915L165.099 89.2287V91.1427C165.099 91.3826 165.189 91.526 165.37 91.5729L165.597 91.6343V91.8187H163.514Z" fill="black"/>
<path d="M168.887 91.9679C168.58 91.9679 168.286 91.9036 168.004 91.7748C167.722 91.646 167.468 91.4558 167.242 91.2041C167.02 90.9466 166.844 90.6276 166.714 90.2472C166.583 89.8667 166.517 89.4219 166.517 88.9127C166.517 88.4152 166.583 87.9762 166.714 87.5958C166.844 87.2153 167.02 86.8963 167.242 86.6388C167.468 86.3813 167.722 86.1881 168.004 86.0594C168.291 85.9247 168.585 85.8574 168.887 85.8574C169.189 85.8574 169.481 85.9218 169.763 86.0506C170.05 86.1793 170.304 86.3725 170.525 86.63C170.747 86.8817 170.923 87.1978 171.053 87.5782C171.184 87.9586 171.25 88.4035 171.25 88.9127C171.25 89.4102 171.184 89.8492 171.053 90.2296C170.923 90.6101 170.747 90.929 170.525 91.1866C170.304 91.4441 170.052 91.6402 169.77 91.7748C169.489 91.9036 169.194 91.9679 168.887 91.9679ZM168.887 91.7046C169.174 91.7046 169.406 91.6197 169.582 91.45C169.758 91.2744 169.886 90.9817 169.967 90.572C170.047 90.1623 170.087 89.6092 170.087 88.9127C170.087 88.2162 170.047 87.666 169.967 87.2621C169.886 86.8524 169.758 86.5627 169.582 86.393C169.406 86.2174 169.174 86.1296 168.887 86.1296C168.605 86.1296 168.374 86.2174 168.193 86.393C168.017 86.5627 167.888 86.8524 167.808 87.2621C167.727 87.666 167.687 88.2162 167.687 88.9127C167.687 89.6092 167.727 90.1623 167.808 90.572C167.888 90.9817 168.017 91.2744 168.193 91.45C168.374 91.6197 168.605 91.7046 168.887 91.7046Z" fill="black"/>
<path d="M173.804 91.9679C173.427 91.9679 173.092 91.8889 172.8 91.7309C172.513 91.5729 172.287 91.3241 172.121 90.9846C171.96 90.6393 171.879 90.1857 171.879 89.6238V88.6756C171.879 88.3479 171.879 88.0172 171.879 87.6836C171.879 87.3499 171.877 87.0134 171.872 86.6739C171.872 86.4456 171.779 86.3022 171.592 86.2437L171.426 86.1998V86.0155H173.464V86.1998L173.253 86.2525C173.062 86.3052 172.966 86.4515 172.966 86.6915C172.961 87.0192 172.959 87.3499 172.959 87.6836C172.959 88.0113 172.959 88.342 172.959 88.6756V89.7906C172.959 90.3584 173.057 90.7681 173.253 91.0198C173.454 91.2714 173.739 91.3973 174.106 91.3973C174.493 91.3973 174.795 91.2627 175.012 90.9934C175.233 90.7183 175.344 90.3115 175.344 89.7731V86.7178C175.344 86.6008 175.324 86.4983 175.283 86.4105C175.243 86.3227 175.173 86.2671 175.072 86.2437L174.891 86.1998V86.0155H176.053V86.1998L175.842 86.2525C175.746 86.2759 175.681 86.3286 175.646 86.4105C175.61 86.4925 175.593 86.592 175.593 86.709V89.7204C175.593 90.4462 175.429 91.0022 175.102 91.3885C174.775 91.7748 174.342 91.9679 173.804 91.9679Z" fill="black"/>
<path d="M176.704 91.9416C176.528 91.9416 176.377 91.8714 176.252 91.7309C176.131 91.5904 176.07 91.4207 176.07 91.2217C176.07 91.0168 176.131 90.8412 176.252 90.6949C176.377 90.5486 176.528 90.4754 176.704 90.4754C176.881 90.4754 177.029 90.5486 177.15 90.6949C177.276 90.8412 177.338 91.0168 177.338 91.2217C177.338 91.4207 177.276 91.5904 177.15 91.7309C177.029 91.8714 176.881 91.9416 176.704 91.9416Z" fill="black"/>
</svg>
