<svg width="283" height="126" viewBox="0 0 283 126" fill="none" xmlns="http://www.w3.org/2000/svg">
<path fill-rule="evenodd" clip-rule="evenodd" d="M283 8.50002L2 8.5L2 0L283 2.45658e-05V8.50002Z" fill="black"/>
<path d="M44 46.8207H59.1818L74.2603 65.5267V46.8207H77.3586V84.2328H65.2235L47.15 59.327V84.2328H44V46.8207Z" fill="black"/>
<path d="M80.2581 46.8207H117.799V49.974H98.4349V63.8165H107.936V67.0232H98.4349V81.026H117.799V84.2328H80.2581V46.8207Z" fill="black"/>
<path d="M142.855 80.7588C145.437 80.7588 147.486 79.6721 149.001 77.4986C150.515 75.3251 151.496 72.6885 151.944 69.5886H155.146C154.664 73.4367 153.441 76.7147 151.479 79.4226C150.378 80.9191 149.121 82.0415 147.71 82.7897C146.332 83.5023 144.801 83.9655 143.114 84.1793C141.461 84.3931 139.292 84.5 136.607 84.5C132.82 84.5 129.739 84.1259 127.364 83.3776C125.023 82.5938 123.009 81.3289 121.322 79.583C118.017 76.1624 116.365 71.4592 116.365 65.4733C116.365 59.1667 117.845 54.4812 120.806 51.417C122.734 49.4217 124.885 48.1034 127.261 47.462C129.636 46.8207 132.752 46.5 136.607 46.5C140.153 46.5 143.028 46.7672 145.231 47.3017C147.469 47.8005 149.293 48.8872 150.705 50.5619C151.875 51.9515 152.787 53.6261 153.441 55.5858C154.096 57.5455 154.474 59.4873 154.577 61.4114H151.634C151.496 59.808 151.118 58.169 150.498 56.4944C149.913 54.7841 148.983 53.3233 147.71 52.1118C146.436 50.8647 144.818 50.2412 142.855 50.2412C140.997 50.2412 139.499 51.0785 138.363 52.7532C137.365 54.0715 136.607 56.0134 136.091 58.5788C135.712 60.5384 135.523 62.8366 135.523 65.4733C135.523 69.6421 136.005 73.0091 136.969 75.5745C138.208 79.0307 140.17 80.7588 142.855 80.7588Z" fill="#E2AE48"/>
<path d="M167.204 49.974H153.623V46.8207H198.91V49.974H185.278V84.2328H167.204V49.974Z" fill="black"/>
<path d="M203.913 46.8207H218.992L235 84.2328H215.481L210.058 71.8333H198.698L194.05 84.2328H190.281L203.913 46.8207ZM208.613 68.5731L203.913 57.7236L199.834 68.5731H208.613Z" fill="black"/>
<path fill-rule="evenodd" clip-rule="evenodd" d="M224 125.75H0V117.25H224V125.75Z" fill="black"/>
<path d="M234.276 125.5V125.248L234.504 125.188C234.664 125.14 234.768 125.068 234.816 124.972C234.864 124.876 234.892 124.744 234.9 124.576C234.908 124.12 234.912 123.66 234.912 123.196C234.912 122.724 234.912 122.252 234.912 121.78V121.288C234.912 120.824 234.912 120.36 234.912 119.896C234.912 119.432 234.908 118.968 234.9 118.504C234.892 118.336 234.868 118.208 234.828 118.12C234.788 118.024 234.692 117.952 234.54 117.904L234.276 117.82V117.568H240.048L240.132 119.596H239.808L239.184 118.408C239.104 118.256 239.016 118.14 238.92 118.06C238.824 117.972 238.684 117.928 238.5 117.928H236.652C236.644 118.464 236.636 119.016 236.628 119.584C236.628 120.144 236.628 120.704 236.628 121.264H237.78C237.964 121.264 238.1 121.224 238.188 121.144C238.276 121.056 238.36 120.936 238.44 120.784L238.68 120.34H238.944V122.536H238.68L238.44 122.104C238.352 121.944 238.264 121.824 238.176 121.744C238.096 121.656 237.964 121.612 237.78 121.612H236.628C236.628 122.14 236.628 122.648 236.628 123.136C236.628 123.616 236.632 124.088 236.64 124.552C236.64 124.88 236.788 125.084 237.084 125.164L237.444 125.248V125.5H234.276Z" fill="black"/>
<path d="M244.336 125.704C243.848 125.704 243.38 125.616 242.932 125.44C242.484 125.264 242.08 125.004 241.72 124.66C241.368 124.308 241.088 123.872 240.88 123.352C240.672 122.832 240.568 122.224 240.568 121.528C240.568 120.848 240.672 120.248 240.88 119.728C241.088 119.208 241.368 118.772 241.72 118.42C242.08 118.068 242.484 117.804 242.932 117.628C243.388 117.444 243.856 117.352 244.336 117.352C244.816 117.352 245.28 117.44 245.728 117.616C246.184 117.792 246.588 118.056 246.94 118.408C247.292 118.752 247.572 119.184 247.78 119.704C247.988 120.224 248.092 120.832 248.092 121.528C248.092 122.208 247.988 122.808 247.78 123.328C247.572 123.848 247.292 124.284 246.94 124.636C246.588 124.988 246.188 125.256 245.74 125.44C245.292 125.616 244.824 125.704 244.336 125.704ZM244.336 125.344C244.792 125.344 245.16 125.228 245.44 124.996C245.72 124.756 245.924 124.356 246.052 123.796C246.18 123.236 246.244 122.48 246.244 121.528C246.244 120.576 246.18 119.824 246.052 119.272C245.924 118.712 245.72 118.316 245.44 118.084C245.16 117.844 244.792 117.724 244.336 117.724C243.888 117.724 243.52 117.844 243.232 118.084C242.952 118.316 242.748 118.712 242.62 119.272C242.492 119.824 242.428 120.576 242.428 121.528C242.428 122.48 242.492 123.236 242.62 123.796C242.748 124.356 242.952 124.756 243.232 124.996C243.52 125.228 243.888 125.344 244.336 125.344Z" fill="black"/>
<path d="M248.409 125.5V125.248L248.661 125.176C248.821 125.128 248.921 125.06 248.961 124.972C249.009 124.876 249.033 124.744 249.033 124.576C249.041 124.112 249.045 123.648 249.045 123.184C249.045 122.72 249.045 122.252 249.045 121.78V121.288C249.045 120.824 249.045 120.36 249.045 119.896C249.045 119.432 249.041 118.968 249.033 118.504C249.033 118.336 249.013 118.208 248.973 118.12C248.933 118.024 248.833 117.952 248.673 117.904L248.409 117.82V117.568H251.769C252.705 117.568 253.425 117.748 253.929 118.108C254.441 118.46 254.697 118.956 254.697 119.596C254.697 119.948 254.557 120.304 254.277 120.664C254.005 121.024 253.585 121.3 253.017 121.492L254.649 124.672C254.785 124.936 254.997 125.116 255.285 125.212L255.513 125.26V125.5H253.389L251.601 121.756H250.737C250.737 122.324 250.737 122.836 250.737 123.292C250.737 123.748 250.741 124.176 250.749 124.576C250.749 124.736 250.773 124.864 250.821 124.96C250.877 125.056 250.981 125.124 251.133 125.164L251.421 125.248V125.5H248.409ZM250.737 121.408H251.385C251.953 121.408 252.369 121.264 252.633 120.976C252.897 120.688 253.029 120.248 253.029 119.656C253.029 119.064 252.901 118.628 252.645 118.348C252.397 118.06 251.993 117.916 251.433 117.916H250.749C250.749 118.228 250.745 118.548 250.737 118.876C250.737 119.196 250.737 119.56 250.737 119.968C250.737 120.368 250.737 120.848 250.737 121.408Z" fill="black"/>
<path d="M259.969 125.5V125.248L260.317 125.164C260.477 125.124 260.589 125.056 260.653 124.96C260.717 124.864 260.753 124.736 260.761 124.576V122.404L258.829 118.456C258.749 118.296 258.673 118.176 258.601 118.096C258.529 118.016 258.425 117.952 258.289 117.904L258.073 117.82V117.568H261.253V117.82L261.037 117.892C260.861 117.948 260.765 118.04 260.749 118.168C260.733 118.288 260.769 118.444 260.857 118.636L262.225 121.66L263.701 118.552C263.773 118.408 263.805 118.268 263.797 118.132C263.789 117.996 263.705 117.908 263.545 117.868L263.377 117.82V117.568H264.949V117.82L264.709 117.892C264.549 117.94 264.433 118.012 264.361 118.108C264.297 118.204 264.229 118.332 264.157 118.492L262.489 121.96V124.576C262.489 124.904 262.633 125.1 262.921 125.164L263.281 125.248V125.5H259.969Z" fill="black"/>
<path d="M268.512 125.704C268.024 125.704 267.556 125.616 267.108 125.44C266.66 125.264 266.256 125.004 265.896 124.66C265.544 124.308 265.264 123.872 265.056 123.352C264.848 122.832 264.744 122.224 264.744 121.528C264.744 120.848 264.848 120.248 265.056 119.728C265.264 119.208 265.544 118.772 265.896 118.42C266.256 118.068 266.66 117.804 267.108 117.628C267.564 117.444 268.032 117.352 268.512 117.352C268.992 117.352 269.456 117.44 269.904 117.616C270.36 117.792 270.764 118.056 271.116 118.408C271.468 118.752 271.748 119.184 271.956 119.704C272.164 120.224 272.268 120.832 272.268 121.528C272.268 122.208 272.164 122.808 271.956 123.328C271.748 123.848 271.468 124.284 271.116 124.636C270.764 124.988 270.364 125.256 269.916 125.44C269.468 125.616 269 125.704 268.512 125.704ZM268.512 125.344C268.968 125.344 269.336 125.228 269.616 124.996C269.896 124.756 270.1 124.356 270.228 123.796C270.356 123.236 270.42 122.48 270.42 121.528C270.42 120.576 270.356 119.824 270.228 119.272C270.1 118.712 269.896 118.316 269.616 118.084C269.336 117.844 268.968 117.724 268.512 117.724C268.064 117.724 267.696 117.844 267.408 118.084C267.128 118.316 266.924 118.712 266.796 119.272C266.668 119.824 266.604 120.576 266.604 121.528C266.604 122.48 266.668 123.236 266.796 123.796C266.924 124.356 267.128 124.756 267.408 124.996C267.696 125.228 268.064 125.344 268.512 125.344Z" fill="black"/>
<path d="M276.329 125.704C275.729 125.704 275.197 125.596 274.733 125.38C274.277 125.164 273.917 124.824 273.653 124.36C273.397 123.888 273.269 123.268 273.269 122.5V121.204C273.269 120.756 273.269 120.304 273.269 119.848C273.269 119.392 273.265 118.932 273.257 118.468C273.257 118.156 273.109 117.96 272.813 117.88L272.549 117.82V117.568H275.789V117.82L275.453 117.892C275.149 117.964 274.997 118.164 274.997 118.492C274.989 118.94 274.985 119.392 274.985 119.848C274.985 120.296 274.985 120.748 274.985 121.204V122.728C274.985 123.504 275.141 124.064 275.453 124.408C275.773 124.752 276.225 124.924 276.809 124.924C277.425 124.924 277.905 124.74 278.249 124.372C278.601 123.996 278.777 123.44 278.777 122.704V118.528C278.777 118.368 278.745 118.228 278.681 118.108C278.617 117.988 278.505 117.912 278.345 117.88L278.057 117.82V117.568H279.905V117.82L279.569 117.892C279.417 117.924 279.313 117.996 279.257 118.108C279.201 118.22 279.173 118.356 279.173 118.516V122.632C279.173 123.624 278.913 124.384 278.393 124.912C277.873 125.44 277.185 125.704 276.329 125.704Z" fill="black"/>
<path d="M280.941 125.668C280.661 125.668 280.421 125.572 280.221 125.38C280.029 125.188 279.933 124.956 279.933 124.684C279.933 124.404 280.029 124.164 280.221 123.964C280.421 123.764 280.661 123.664 280.941 123.664C281.221 123.664 281.457 123.764 281.649 123.964C281.849 124.164 281.949 124.404 281.949 124.684C281.949 124.956 281.849 125.188 281.649 125.38C281.457 125.572 281.221 125.668 280.941 125.668Z" fill="black"/>
</svg>
