<?xml version="1.0" standalone="no"?>
<!DOCTYPE svg PUBLIC "-//W3C//DTD SVG 20010904//EN"
 "http://www.w3.org/TR/2001/REC-SVG-20010904/DTD/svg10.dtd">
<svg version="1.0" xmlns="http://www.w3.org/2000/svg"
 width="1200.000000pt" height="1200.000000pt" viewBox="0 0 1200.000000 1200.000000"
 preserveAspectRatio="xMidYMid meet">
<metadata>
Created by potrace 1.14, written by Peter Selinger 2001-2017
</metadata>
<g transform="translate(0.000000,1200.000000) scale(0.100000,-0.100000)"
fill="#000000" stroke="none">
<path d="M290 8080 c-8 -5 -13 -62 -9 -120 1 -22 0 -56 -1 -92 -3 -58 4 -118
13 -119 95 -4 10980 1 10985 5 12 13 8 318 -5 323 -16 6 -10973 9 -10983 3z"/>
<path d="M5379 6256 c-2 -2 -26 -6 -54 -9 -95 -11 -159 -27 -227 -59 -37 -17
-68 -35 -68 -39 0 -5 -5 -9 -12 -9 -15 0 -148 -139 -148 -155 0 -7 -7 -18 -15
-25 -8 -7 -15 -21 -15 -31 0 -11 -4 -19 -8 -19 -9 0 -19 -30 -47 -135 -12 -47
-27 -188 -26 -260 0 -26 11 -163 15 -185 17 -93 71 -234 103 -268 7 -7 13 -17
13 -22 0 -4 32 -40 70 -79 100 -100 221 -157 380 -177 115 -15 424 -8 523 11
42 8 127 44 161 67 46 32 112 106 133 150 10 21 21 38 24 38 4 0 15 23 25 50
10 28 22 50 26 50 4 0 7 3 6 8 -1 4 6 43 15 87 10 44 19 87 21 96 3 12 -8 15
-60 15 -45 0 -64 -4 -65 -13 -1 -7 -2 -16 -3 -20 -1 -5 -5 -26 -10 -48 -4 -22
-11 -44 -14 -50 -4 -5 -7 -16 -8 -22 -6 -37 -74 -154 -113 -194 -67 -68 -96
-80 -194 -85 -66 -3 -110 12 -151 53 -35 35 -75 93 -81 119 -2 10 -11 39 -20
64 -9 25 -19 58 -22 75 -2 16 -7 46 -10 65 -8 48 -7 364 1 420 3 25 6 52 7 60
2 24 19 93 29 115 5 11 16 36 24 55 30 68 76 118 134 146 32 15 124 16 177 1
11 -3 23 -6 26 -6 20 -3 106 -93 133 -141 17 -30 31 -57 31 -60 0 -3 3 -9 6
-15 8 -15 37 -125 44 -165 l5 -35 56 -1 55 -1 -4 56 c-8 87 -48 226 -79 273
-10 14 -18 31 -18 36 0 19 -125 139 -160 154 -53 23 -91 36 -135 44 -22 4 -47
9 -55 11 -19 6 -416 14 -421 9z"/>
<path d="M1925 5518 l0 -733 57 -1 c35 -1 58 2 61 9 2 7 4 222 3 480 -1 293 3
466 9 464 7 -3 173 -225 332 -446 10 -14 33 -44 51 -68 17 -24 32 -47 32 -52
0 -5 3 -11 8 -13 8 -3 108 -136 138 -183 10 -16 29 -41 41 -54 12 -13 38 -50
59 -81 l37 -56 238 0 239 -1 1 41 c0 61 1 1377 0 1404 -1 20 -6 22 -61 22
l-60 0 -2 -364 -3 -364 -54 69 c-30 38 -61 77 -70 87 -9 9 -34 40 -56 67 -21
28 -42 52 -45 55 -3 3 -17 21 -31 40 -15 19 -35 45 -45 57 -41 47 -54 63 -54
68 0 2 -13 19 -30 37 -50 55 -60 68 -60 74 0 4 -8 14 -18 23 -10 9 -41 46 -71
84 l-53 67 -296 0 -297 0 0 -732z"/>
<path d="M3347 6243 c-2 -5 -3 -334 -3 -733 l1 -725 733 -1 c402 0 733 2 733
5 4 19 5 98 1 109 -3 9 -88 12 -378 12 -349 0 -374 1 -375 18 0 9 0 67 0 127
1 61 1 124 0 140 0 17 -2 82 -2 145 l-2 116 185 -1 185 0 3 63 3 62 -178 0
c-98 0 -183 4 -188 8 -12 8 -13 71 -2 90 5 6 5 12 0 12 -4 0 -7 62 -5 137 2
142 2 172 -2 233 -5 69 -27 65 386 64 l374 -1 -1 61 -1 61 -731 3 c-403 1
-733 -1 -736 -5z"/>
<path d="M6216 6192 c1 -31 3 -60 3 -63 1 -4 115 -6 254 -7 138 0 258 0 265
-1 9 -1 12 -142 12 -669 l0 -669 348 2 c191 1 350 3 354 3 3 1 5 41 5 88 -1
47 1 88 5 90 4 3 3 16 -3 31 -6 18 -6 30 2 39 6 8 8 14 3 14 -13 0 -11 303 1
312 7 5 7 8 0 8 -10 0 -12 67 -2 77 3 3 1 16 -4 30 -6 18 -6 30 2 39 6 8 8 14
3 14 -10 0 -11 266 -1 276 3 3 2 16 -2 28 -8 24 -7 83 2 92 3 3 1 17 -4 31 -6
18 -6 30 2 39 6 8 8 14 3 14 -5 0 -9 26 -9 58 l0 57 267 -1 268 -1 0 64 0 63
-888 0 -888 0 2 -58z"/>
<path d="M8183 6238 c-4 -7 -8 -17 -9 -23 -2 -13 -42 -123 -54 -150 -10 -21
-120 -323 -124 -340 -2 -5 -6 -17 -9 -25 -28 -70 -87 -235 -87 -246 0 -8 -4
-14 -8 -14 -5 0 -9 -6 -9 -13 0 -7 -14 -51 -32 -97 -18 -47 -34 -92 -36 -100
-2 -8 -15 -43 -29 -78 -13 -34 -25 -64 -25 -65 0 -1 -5 -15 -11 -32 -7 -16
-13 -34 -14 -40 -2 -5 -6 -17 -9 -25 -4 -8 -22 -58 -41 -111 l-34 -96 74 0
c73 1 79 4 90 42 6 22 66 180 72 189 3 6 7 16 8 21 3 13 61 171 77 207 l11 27
222 0 221 -1 33 -76 c35 -80 58 -132 107 -242 17 -36 38 -86 48 -112 10 -27
20 -49 24 -50 3 0 175 -2 383 -3 337 -1 376 0 373 14 -3 14 -91 226 -115 276
-5 11 -11 27 -12 35 -2 8 -9 21 -16 28 -7 8 -10 18 -7 23 4 5 1 9 -5 9 -7 0
-10 7 -6 15 3 8 2 15 -3 15 -5 0 -12 10 -16 23 -4 12 -8 24 -9 27 -2 3 -8 17
-14 33 -6 15 -20 46 -30 70 -11 23 -32 71 -47 107 -15 36 -35 83 -45 105 -10
22 -44 101 -75 175 -32 74 -63 149 -71 166 -7 16 -36 84 -64 150 -28 65 -58
136 -67 157 l-17 37 -292 0 c-223 0 -295 -3 -301 -12z m61 -548 c10 -25 24
-58 31 -75 47 -105 94 -215 92 -216 -14 -6 -117 -3 -117 4 0 4 -6 5 -12 0 -17
-10 -208 -11 -208 -1 0 5 4 16 10 26 5 9 21 51 35 92 14 41 30 84 35 95 10 20
28 70 58 158 l16 48 21 -43 c12 -24 29 -64 39 -88z"/>
<path d="M203 3330 c0 -104 4 -163 11 -167 14 -9 8735 -10 8749 -1 10 6 18
285 9 316 -3 9 -889 12 -4387 12 l-4382 0 0 -160z"/>
<path d="M9708 3470 c-18 -9 -45 -34 -59 -55 -22 -32 -26 -49 -24 -94 2 -86
45 -144 113 -157 136 -26 225 124 151 256 -33 58 -121 82 -181 50z m89 -6 c30
-8 43 -46 45 -129 2 -65 -10 -131 -27 -145 -22 -18 -58 -20 -81 -5 -28 18 -41
74 -38 157 5 109 31 141 101 122z"/>
<path d="M10663 3475 c-33 -14 -60 -39 -80 -72 -18 -31 -11 -144 10 -176 60
-91 198 -87 249 7 14 26 27 126 16 132 -4 3 -8 13 -8 24 0 22 -48 75 -77 84
-42 13 -79 14 -110 1z m104 -19 c2 -2 5 -10 7 -18 1 -7 5 -18 8 -24 7 -11 4
-166 -4 -197 -6 -25 -43 -48 -70 -43 -13 3 -26 5 -29 5 -24 3 -50 195 -31 226
4 5 7 17 9 25 4 25 36 42 72 36 18 -3 36 -7 38 -10z"/>
<path d="M9380 3471 c16 -11 21 -34 19 -91 0 -19 0 -45 0 -57 4 -91 1 -132
-10 -138 -21 -14 -6 -20 45 -20 30 0 58 3 62 8 4 4 0 7 -9 7 -17 0 -19 4 -19
65 0 75 0 75 30 73 15 -2 35 -12 44 -23 16 -19 16 -18 15 29 -1 45 -2 47 -17
30 -8 -11 -28 -20 -45 -22 l-30 -3 0 69 c0 63 2 69 20 67 11 -1 33 -3 48 -4
22 -1 31 -8 40 -31 15 -39 32 -33 32 11 l-1 34 -119 3 c-82 2 -115 -1 -105 -7z"/>
<path d="M9934 3467 c17 -13 19 -28 20 -145 1 -100 -2 -133 -12 -137 -28 -11
-1 -21 50 -19 67 3 66 3 46 15 -14 8 -18 24 -18 73 0 88 21 85 67 -11 19 -40
39 -73 44 -74 5 -1 20 -1 34 -1 44 0 45 1 19 27 -13 13 -34 46 -46 72 -12 27
-24 51 -25 54 -2 3 8 11 21 17 33 15 45 41 35 77 -13 46 -42 58 -154 62 -87 3
-97 2 -81 -10z m161 -23 c20 -20 17 -79 -6 -100 -17 -15 -76 -16 -71 -1 1 4 2
32 2 62 0 54 0 55 29 55 16 0 37 -7 46 -16z"/>
<path d="M10310 3469 c0 -5 4 -9 9 -9 5 0 28 -39 51 -86 47 -96 56 -167 23
-191 -16 -12 -15 -13 3 -14 58 -3 114 -4 114 -1 0 2 -7 10 -15 19 -8 8 -13 19
-10 24 4 5 2 9 -3 9 -11 0 0 84 18 133 8 20 18 37 23 37 4 0 6 4 3 9 -3 5 1
14 9 21 8 7 15 18 15 26 0 7 8 18 18 23 13 8 9 10 -23 10 -22 0 -34 -3 -27 -6
6 -2 12 -10 12 -16 0 -21 -64 -141 -68 -127 -2 8 -13 32 -23 53 -10 20 -16 37
-13 37 2 0 0 8 -5 18 -7 13 -6 23 1 30 9 9 -4 11 -50 11 -34 -1 -62 -5 -62
-10z"/>
<path d="M10873 3467 c-3 -5 -1 -7 5 -3 17 10 23 -26 26 -140 2 -99 4 -106 29
-132 22 -21 37 -27 82 -29 30 -1 55 3 55 8 0 5 5 9 11 9 27 0 54 54 50 103 -1
21 2 26 11 21 10 -6 10 -4 2 7 -6 8 -10 43 -9 79 3 81 3 82 15 75 6 -3 10 -2
10 4 0 6 -16 10 -35 9 -29 -1 -33 -4 -23 -16 17 -20 19 -189 3 -229 -11 -25
-21 -33 -48 -38 -75 -14 -90 17 -85 175 2 69 6 94 16 93 6 -2 12 2 12 7 0 13
-118 11 -127 -3z"/>
<path d="M11176 3224 c-9 -8 -16 -19 -16 -24 0 -13 30 -40 44 -40 35 0 48 53
17 70 -25 13 -27 13 -45 -6z"/>
</g>
</svg>
